<svg id="Capa_1" data-name="Capa 1" xmlns="http://www.w3.org/2000/svg" xmlns:xlink="http://www.w3.org/1999/xlink" viewBox="0 0 335 335"><defs><linearGradient id="Degradado_sin_nombre_104" x1="14.5" y1="168.58" x2="350.33" y2="166.21" gradientUnits="userSpaceOnUse"><stop offset="0" stop-color="#fdd000"/><stop offset="1" stop-color="#f59a00"/></linearGradient></defs><title>wikiapi</title><rect width="335" height="335" fill="url(#Degradado_sin_nombre_104)"/><path d="M363.93,171.56q-21.05.06-42.1,0a1.79,1.79,0,0,0-2.1,1.73q-8.6,41.43-17.23,82.86a2.25,2.25,0,0,1-.7,1.54q-10.61-42.06-21.16-84.09c-0.43-1.71-1.13-2-2.72-2-14.39.06-28.79,0.09-43.18,0-2,0-2.65.68-3.12,2.45q-10.91,41.17-21.92,82.31c0,0.19-.13.36-0.37,1-1.09-5.21-2.1-10-3.1-14.81q-7-33.59-14-67.17c-0.78-3.72-.84-3.71-4.66-3.71H148c-0.78,0-1.56-.07-2.35-0.11v1.72c1.55,3.75,2.06,7.77,3,11.67q11.42,49.1,22.7,98.23,6.53,28.31,13,56.64c0.3,1.32.76,1.84,2.21,1.83q20.51-.09,41,0a2,2,0,0,0,2.27-1.82q12.68-48,25.42-96a3.46,3.46,0,0,1,.36-0.56c1.19,4.38,2.34,8.54,3.46,12.72q11.19,42,22.32,84a1.82,1.82,0,0,0,2.14,1.68q20.19-.08,40.39,0a1.83,1.83,0,0,0,2.14-1.68Q338.5,287.06,351,234.25c4.79-20.31,9.52-40.63,14.36-60.93C365.71,171.73,365.34,171.55,363.93,171.56Z" transform="translate(-88.07 -89)" fill="#fff"/><path d="M227.6,342.22h0c-13.08-.07-26.88-0.07-41,0-2,0-2.53-.89-2.85-2.34q-6.45-28.33-13-56.63L167.88,271Q158,228,148,185c-0.25-1.09-.47-2.18-0.7-3.27-0.56-2.78-1.41-5-2.29-8.55h0v-2.41l1.44,0.08c0.52,0,1,.06,1.56.06h39.53c4.17,0,4.47.24,5.3,4.23q5.1,24.33,10.16,48.66l6.44,30.84,3.27-12.25q9.16-34.3,18.27-68.6c0.5-1.87,1.25-2.93,3.76-2.93,15,0.12,30.26.08,43.17,0,1.68,0,2.83.41,3.36,2.53,5.73,23,11.62,46.28,17.31,68.84l3.36,13.32L308.31,225q5.39-25.92,10.77-51.83a2.44,2.44,0,0,1,2.74-2.25c12.29,0.06,25.67.06,42.1,0h0a2.27,2.27,0,0,1,1.91.56,2.29,2.29,0,0,1,.13,2q-4.81,20.16-9.52,40.35-2.42,10.29-4.84,20.58Q346,258,340.45,281.7,333.57,310.86,326.7,340a2.46,2.46,0,0,1-2.75,2.19h0c-12.7-.06-25.91-0.06-40.38,0h0a2.45,2.45,0,0,1-2.75-2.16Q270,299.19,259,258.36l-0.61-2.29c-0.75-2.81-1.52-5.61-2.3-8.48l-0.6-2.21Q243,292.67,230.48,339.91A2.61,2.61,0,0,1,227.6,342.22Zm-20.55-1.36c7,0,13.85,0,20.52,0,1.07,0,1.36-.3,1.64-1.34q12.68-48,25.42-96a1.34,1.34,0,0,1,.24-0.45l0.2-.3,0.8-1.22,1.54,5.64c0.78,2.87,1.55,5.68,2.3,8.49l0.61,2.29Q271.2,298.86,282,339.71c0.27,1,.49,1.19,1.51,1.19,14.47-.05,27.69-0.05,40.39,0a1.24,1.24,0,0,0,1.5-1.18q6.87-29.17,13.75-58.33,5.58-23.65,11.16-47.3,2.42-10.29,4.83-20.57,4.74-20.18,9.52-40.36a2,2,0,0,0,.11-0.91h0a5,5,0,0,0-.87,0h0c-16.43,0-29.81,0-42.11,0a1.17,1.17,0,0,0-1.46,1.21q-5.38,25.92-10.77,51.83l-6.49,31.21a2.59,2.59,0,0,1-.91,1.75l-0.79.61-4.09-16.22C291.62,220,285.73,196.7,280,173.74c-0.34-1.35-.72-1.54-2-1.54h-0.06c-12.91.05-28.14,0.09-43.19,0-1.67,0-2.08.45-2.48,2q-9.09,34.31-18.27,68.61l-3.66,13.7a4.8,4.8,0,0,1-.18.5l-1,2.66-7.42-35.53q-5.07-24.33-10.16-48.66c-0.67-3.19-.67-3.15-4-3.19H148c-0.55,0-1.09,0-1.64-.07h0v0.9a47,47,0,0,1,2.26,8.42c0.22,1.08.44,2.16,0.69,3.24q10,43,19.88,86L172,282.95q6.53,28.31,13,56.64c0.25,1.09.51,1.32,1.54,1.32h0C193.47,340.87,200.33,340.86,207.05,340.86Z" transform="translate(-88.07 -89)" fill="#2b2b2b" opacity="0.17"/></svg>